<svg xmlns="http://www.w3.org/2000/svg" viewBox="0 0 64 64" role="img" aria-label="MediSafe favicon">
  <defs>
    <linearGradient id="ring" x1="0" y1="0" x2="1" y2="1">
      <stop offset="0%" stop-color="#18c3bd" />
      <stop offset="100%" stop-color="#4f6f78" />
    </linearGradient>
  </defs>
  <rect width="64" height="64" rx="12" fill="#f6fbff" />
  <circle cx="32" cy="32" r="24" fill="none" stroke="url(#ring)" stroke-width="5" stroke-linecap="round" stroke-dasharray="126 22" transform="rotate(-35 32 32)" />
  <path d="M24 22a3 3 0 0 0-3 3v8a7 7 0 0 0 14 0v-8a3 3 0 0 0-6 0v8a1 1 0 1 1-2 0v-8" fill="none" stroke="#5b6f75" stroke-width="3.2" stroke-linecap="round" stroke-linejoin="round" />
  <path d="M40 22a3 3 0 0 1 3 3v8a7 7 0 0 1-14 0" fill="none" stroke="#5b6f75" stroke-width="3.2" stroke-linecap="round" stroke-linejoin="round" />
  <circle cx="18" cy="37" r="4" fill="#5b6f75" />
</svg>
